<svg xmlns="http://www.w3.org/2000/svg" width="22" height="22" fill="none"><path stroke="#121212" stroke-linecap="round" stroke-linejoin="round" stroke-width="1.375" d="M2.75 6.417H5.5M2.75 15.583h5.5M16.5 15.583h2.75M13.75 6.417h5.5"/><path stroke="#121212" stroke-width="1.375" d="M5.5 6.417c0-.854 0-1.282.14-1.619.186-.449.543-.806.992-.992.337-.14.764-.14 1.618-.14s1.281 0 1.618.14c.45.186.806.543.992.992.14.337.14.765.14 1.619s0 1.281-.14 1.618c-.186.45-.542.806-.992.992-.337.14-.764.14-1.618.14s-1.281 0-1.618-.14a1.83 1.83 0 0 1-.992-.992c-.14-.337-.14-.764-.14-1.618ZM11 15.583c0-.854 0-1.281.14-1.618.186-.45.543-.806.992-.992.337-.14.764-.14 1.618-.14s1.281 0 1.618.14c.45.186.806.543.992.992.14.337.14.764.14 1.618s0 1.282-.14 1.618c-.186.45-.542.807-.992.993-.337.14-.764.14-1.618.14s-1.281 0-1.618-.14a1.83 1.83 0 0 1-.992-.992c-.14-.337-.14-.765-.14-1.619Z"/></svg>