<svg xmlns="http://www.w3.org/2000/svg" width="25" height="32" fill="none"><path fill="#fff" d="M18.87 26.244c-1.463 1.783-3.016 3.508-4.835 4.95-2.02 1.6-2.912.559-4.548-.88C3.759 25.273-1.853 16.534.585 8.58 3.648-1.42 17.385-3.14 22.8 5.87c4.059 6.752.561 14.897-3.931 20.373M18.78 5.866c-.118-.124-.197-.208-.327-.327-.055-.052-.118-.055-.13-.066-.04-.035-.078-.097-.197-.196-.131-.109-.073-.179-.328-.262a.37.37 0 0 0-.196-.196c-.02-.008-.047.007-.065 0-.11-.245-.41-.29-.59-.393-.048-.028-.09-.044-.13-.066-.096-.052-.172-.12-.328-.196C8.052-.008-.303 9.297 4.682 17.184c3.369 5.328 11.348 5.513 15.003.353 2.608-3.682 2.19-8.44-.904-11.671"/></svg>