<svg width="57" height="32" viewBox="0 0 57 32" fill="none" xmlns="http://www.w3.org/2000/svg">
<g clip-path="url(#clip0_1607_1482)">
<path d="M27.5056 0.0403232C37.7566 -0.311677 47.1263 5.04067 53.8118 12.5189C54.4891 13.2758 55.8739 14.8535 56.3442 15.6744C56.4284 15.8219 56.5359 15.9513 56.4339 16.1308C52.2918 21.8128 46.6684 26.7603 40.1787 29.5193C26.3925 35.3808 12.7594 30.1648 3.18699 19.4796C2.61043 18.8355 0.982848 16.9892 0.654572 16.3228C0.567676 16.1447 0.489054 16.0835 0.553882 15.8553C0.655951 15.4963 2.77595 12.9767 3.18699 12.5189C9.40354 5.57911 18.0201 0.365888 27.5056 0.0403232ZM20.2242 5.14919C14.1484 7.0525 8.80768 11.0455 4.78561 15.9485C8.66009 20.9614 14.2256 24.9781 20.2918 26.8535L18.5732 25.2466C14.1511 20.2476 13.8132 13.0407 17.8215 7.66189C18.5373 6.7005 19.4063 5.99789 20.2242 5.1478V5.14919ZM49.1415 12.5704C45.6546 9.28137 41.3415 6.59198 36.776 5.14919C37.5153 5.95058 38.2877 6.57528 38.9787 7.44763C43.1994 12.7735 42.9097 20.1878 38.427 25.2494L36.638 26.8521C42.7484 25.0476 48.3056 20.96 52.2118 15.9527C52.1718 15.7273 49.5553 12.9641 49.1401 12.5718L49.1415 12.5704ZM27.2297 5.74467C20.9691 6.39163 17.0146 12.8695 18.6711 18.8883C20.5911 25.8657 29.3166 28.6859 34.9097 24.0654C42.8725 17.4887 37.5594 4.67754 27.2297 5.74467Z" fill="white"/>
<path d="M23.26 13.913C24.6986 15.4156 27.3138 14.9746 28.0159 12.9391C28.3648 11.9276 28.0007 11.2751 27.8104 10.297C33.1717 9.82955 36.3442 16.4215 32.2959 20.1781C27.911 24.2462 21.1455 19.4546 23.26 13.9144V13.913Z" fill="white"/>
</g>
<defs>
<clipPath id="clip0_1607_1482">
<rect width="56" height="32" fill="white" transform="translate(0.5)"/>
</clipPath>
</defs>
</svg>
